<svg id="Capa_1" data-name="Capa 1" xmlns="http://www.w3.org/2000/svg" viewBox="0 0 1300 1300"><defs><style>.cls-1{fill:#9b8157;}.cls-2{fill:#f4fbff;}</style></defs><path class="cls-1" d="M1041.11,529.45c0,188.38-297.45,537.92-373.55,624.27a23.4,23.4,0,0,1-35.12,0c-76.1-86.35-373.55-435.89-373.55-624.27,0-216,175.11-391.1,391.11-391.1s391.11,175.1,391.11,391.1Z"/><circle class="cls-2" cx="650" cy="522.43" r="298.22"/><path d="M650,1179.49a41.24,41.24,0,0,0,30.94-14c88.68-100.61,378-443.84,378-636.06C1059,304,875.49,120.51,650,120.51a406.35,406.35,0,0,0-159.32,32.2,17.84,17.84,0,0,0,13.91,32.85A371,371,0,0,1,650,156.18c205.83,0,373.27,167.45,373.27,373.27,0,184.35-307.45,542.54-369.09,612.47a5.55,5.55,0,0,1-8.36,0C584.19,1072,276.73,713.8,276.73,529.45A373.8,373.8,0,0,1,436.94,222.92a17.84,17.84,0,1,0-20.39-29.28,409.51,409.51,0,0,0-175.5,335.81c0,192.23,289.33,535.45,378,636.06A41.26,41.26,0,0,0,650,1179.49Z"/><path d="M845.44,770.84c76.65-60.39,120.62-150.93,120.62-248.41,0-174.28-141.78-316.06-316.06-316.06S333.94,348.15,333.94,522.43,475.72,838.5,650,838.5A314,314,0,0,0,777,812a17.84,17.84,0,1,0-14.35-32.67A278.36,278.36,0,0,1,650,802.82c-154.61,0-280.39-125.78-280.39-280.39S495.39,242.05,650,242.05,930.38,367.83,930.38,522.43a279,279,0,0,1-107,220.39,17.84,17.84,0,1,0,22.08,28Z"/><path d="M711.46,625.8v53.65c.25,2.22-.74,3.45-3.2,3.45H693.49c-2,0-3.19-.74-3.19-3V541.88a26.21,26.21,0,0,1,0-4.43c.24-3-1.24-3.69-3.94-3.69H612.53c-2.71,0-4.19.73-3.94,3.69a21.5,21.5,0,0,1,0,3.93V679c.24,2.71-.74,3.69-3.45,3.69a122.13,122.13,0,0,0-13.53,0c-2.71,0-3.7-1-3.45-3.69v-141c0-4.18,0-4.18-4.43-4.43h-72.6c-4.68,0-4.68,0-4.68,5.17v53.65c0,2-1,2.71-2.7,2.71H488.49c-2,0-2.71-1-2.71-2.71V456.48c0-4.92,0-4.92,4.92-4.92h72.11c4.68,0,4.68,0,4.68,4.67v12.31c0,2.7-1,3.69-3.69,3.69-6.65-.25-13.54,0-20.18,0H510.88c-4.67,0-4.67,0-4.67,4.67v31.51c0,4.92,0,4.92,5.17,4.92h73.34c2.7,0,3.69-1,3.69-3.69v-140c0-8.37-1-7.38,7.63-7.38h9.59c2.22,0,3.45.74,3.45,3.2V506.68c0,7.14-1,6.65,6.64,6.65h72.11c2.22,0,3-1,3-3.2V368.86c0-7.38-.74-6.64,6.64-6.89h8.37c6.64,0,5.91-.24,5.91,6.16V509.39c-.25,2.46.73,3.69,3.44,3.69,19.2,0,38.39.25,57.34-.24,12.31-.25,20.43-8.62,20.68-19.45.49-12.06-8.37-21.16-20.43-21.41-11.32-.24-22.64,0-33.72,0h-3.93c-2.22.25-3-1-3-3V454.26c0-2.21,1-2.95,3-2.95,14.27,0,28.55-.49,42.82.49,17,1,32.24,15.51,35.44,32.24,2.71,13.78-1,25.6-9.85,36.18-2.7,3.2-2.7,3.2,0,6.15,21.17,23.87,9.36,60.79-21.65,67.68a30.73,30.73,0,0,1-6.65.74H736.32c-3.94,0-3.94-.25-3.94-4.18V578.3c0-3.94.25-3.94,4.18-3.94H772a28.76,28.76,0,0,0,7.88-1c9.6-3.2,15-12.31,13.53-22.64a20,20,0,0,0-18.95-17c-19.68-.25-39.37,0-59.06-.25-2.46,0-3.45.74-3.45,3.2.25,4.43,0,8.61,0,13C711.46,575.1,711.46,600.45,711.46,625.8Z"/></svg>